{
  "source": "C:\\Users\\Peter\\Desktop\\stuff\\MIUN\\quantitative_research\\video_compression\\videos\\BVI-HD\\BVI-HD_CDVL_videos\\ORIG\\CalmingWater_1920x1080_60fps.mp4",
  "output": "C:\\Users\\Peter\\Desktop\\stuff\\MIUN\\quantitative_research\\video_compression\\compressed_videos\\BVI-HD\\h264\\4\\CalmingWater_1920x1080_60fps_h264.mp4",
  "codec": "h264",
  "ok": "Input #0, mov,mp4,m4a,3gp,3g2,mj2, from 'C:\\Users\\Peter\\Desktop\\stuff\\MIUN\\quantitative_research\\video_compression\\videos\\BVI-HD\\BVI-HD_CDVL_videos\\ORIG\\CalmingWater_1920x1080_60fps.mp4':\n  Metadata:\n    major_brand     : isom\n    minor_version   : 512\n    compatible_brands: isomiso2avc1mp41\n    encoder         : Lavf54.28.101\n  Duration: 00:00:05.00, start: 0.000000, bitrate: 623787 kb/s\n  Stream #0:0[0x1](und): Video: h264 (High 4:4:4 Predictive) (avc1 / 0x31637661), yuv420p(progressive), 1920x1080, 623782 kb/s, 60 fps, 60 tbr, 60 tbn (default)\n    Metadata:\n      handler_name    : VideoHandler\n      vendor_id       : [0][0][0][0]\n[out#0/mp4 @ 000001e2f8da9b40] Codec AVOption b:a (set bitrate (in bits/s)) has not been used for any stream. The most likely reason is either wrong type (e.g. a video option with no video streams) or that it is a private option of some decoder which was not actually used for any stream.\nStream mapping:\n  Stream #0:0 -> #0:0 (h264 (native) -> h264 (libx264))\nPress [q] to stop, [?] for help\n[libx264 @ 000001e2f9900300] using cpu capabilities: MMX2 SSE2Fast SSSE3 SSE4.2 AVX FMA3 BMI2 AVX2\n[libx264 @ 000001e2f9900300] profile High, level 5.0, 4:2:0, 8-bit\n[libx264 @ 000001e2f9900300] 264 - core 165 r3222 b35605a - H.264/MPEG-4 AVC codec - Copyleft 2003-2025 - http://www.videolan.org/x264.html - options: cabac=1 ref=5 deblock=1:0:0 analyse=0x3:0x113 me=hex subme=8 psy=1 psy_rd=1.00:0.00 mixed_ref=1 me_range=16 chroma_me=1 trellis=2 8x8dct=1 cqm=0 deadzone=21,11 fast_pskip=1 chroma_qp_offset=-2 threads=18 lookahead_threads=3 sliced_threads=0 nr=0 decimate=1 interlaced=0 bluray_compat=0 constrained_intra=0 bframes=3 b_pyramid=2 b_adapt=1 b_bias=0 direct=3 weightb=1 open_gop=0 weightp=2 keyint=250 keyint_min=25 scenecut=40 intra_refresh=0 rc_lookahead=50 rc=cbr mbtree=1 bitrate=4000 ratetol=1.0 qcomp=0.60 qpmin=0 qpmax=69 qpstep=4 vbv_maxrate=4000 vbv_bufsize=4000 nal_hrd=none filler=0 ip_ratio=1.40 aq=1:1.00\nOutput #0, mp4, to 'C:\\Users\\Peter\\Desktop\\stuff\\MIUN\\quantitative_research\\video_compression\\compressed_videos\\BVI-HD\\h264\\4\\CalmingWater_1920x1080_60fps_h264.mp4':\n  Metadata:\n    major_brand     : isom\n    minor_version   : 512\n    compatible_brands: isomiso2avc1mp41\n    encoder         : Lavf62.3.100\n  Stream #0:0(und): Video: h264 (avc1 / 0x31637661), yuv420p(tv, progressive), 1920x1080, q=2-31, 4000 kb/s, 60 fps, 15360 tbn (default)\n    Metadata:\n      encoder         : Lavc62.11.100 libx264\n      handler_name    : VideoHandler\n      vendor_id       : [0][0][0][0]\n    Side data:\n      cpb: bitrate max/min/avg: 4000000/0/4000000 buffer size: 4000000 vbv_delay: N/A\nframe=    0 fps=0.0 q=0.0 size=       0KiB time=N/A bitrate=N/A speed=N/A elapsed=0:00:00.51    \nframe=    0 fps=0.0 q=0.0 size=       0KiB time=N/A bitrate=N/A speed=N/A elapsed=0:00:01.13    \nframe=    0 fps=0.0 q=0.0 size=       0KiB time=N/A bitrate=N/A speed=N/A elapsed=0:00:01.70    \nframe=    0 fps=0.0 q=0.0 size=       0KiB time=N/A bitrate=N/A speed=N/A elapsed=0:00:02.25    \nframe=    0 fps=0.0 q=0.0 size=       0KiB time=N/A bitrate=N/A speed=N/A elapsed=0:00:02.83    \nframe=    5 fps=1.5 q=49.0 size=       0KiB time=00:00:00.05 bitrate=   7.7kbits/s speed=0.0148x elapsed=0:00:03.38    \nframe=   16 fps=4.1 q=49.0 size=       0KiB time=00:00:00.21 bitrate=   1.8kbits/s speed=0.0553x elapsed=0:00:03.91    \nframe=   28 fps=6.3 q=49.0 size=       0KiB time=00:00:00.43 bitrate=   0.9kbits/s speed=0.0972x elapsed=0:00:04.45    \nframe=   38 fps=7.4 q=49.0 size=     256KiB time=00:00:00.58 bitrate=3595.8kbits/s speed=0.114x elapsed=0:00:05.11    \nframe=   47 fps=8.2 q=49.0 size=     256KiB time=00:00:00.73 bitrate=2860.3kbits/s speed=0.128x elapsed=0:00:05.72    \nframe=   59 fps=9.4 q=49.0 size=     512KiB time=00:00:00.95 bitrate=4415.5kbits/s speed=0.151x elapsed=0:00:06.30    \nframe=   70 fps= 10 q=49.0 size=     512KiB time=00:00:01.11 bitrate=3756.4kbits/s speed=0.163x elapsed=0:00:06.83    \nframe=   82 fps= 11 q=49.0 size=     512KiB time=00:00:01.30 bitrate=3226.7kbits/s speed=0.175x elapsed=0:00:07.40    \nframe=   90 fps= 11 q=49.0 size=     768KiB time=00:00:01.46 bitrate=4289.9kbits/s speed=0.182x elapsed=0:00:08.03    \nframe=   99 fps= 12 q=49.0 size=     768KiB time=00:00:01.60 bitrate=3932.4kbits/s speed=0.186x elapsed=0:00:08.59    \nframe=  109 fps= 12 q=49.0 size=     768KiB time=00:00:01.76 bitrate=3561.4kbits/s speed=0.192x elapsed=0:00:09.21    \nframe=  119 fps= 12 q=49.0 size=    1024KiB time=00:00:01.95 bitrate=4302.0kbits/s speed=0.198x elapsed=0:00:09.82    \nframe=  129 fps= 12 q=49.0 size=    1024KiB time=00:00:02.10 bitrate=3994.8kbits/s speed=0.202x elapsed=0:00:10.37    \nframe=  140 fps= 13 q=49.0 size=    1024KiB time=00:00:02.28 bitrate=3674.0kbits/s speed=0.209x elapsed=0:00:10.94    \nframe=  150 fps= 13 q=49.0 size=    1280KiB time=00:00:02.45 bitrate=4280.1kbits/s speed=0.213x elapsed=0:00:11.52    \nframe=  159 fps= 13 q=49.0 size=    1280KiB time=00:00:02.61 bitrate=4007.4kbits/s speed=0.217x elapsed=0:00:12.05    \nframe=  171 fps= 14 q=48.0 size=    1280KiB time=00:00:02.81 bitrate=3722.9kbits/s speed=0.224x elapsed=0:00:12.59    \nframe=  183 fps= 14 q=48.0 size=    1536KiB time=00:00:03.01 bitrate=4171.3kbits/s speed=0.23x elapsed=0:00:13.14    \nframe=  194 fps= 14 q=48.0 size=    1536KiB time=00:00:03.18 bitrate=3952.9kbits/s speed=0.233x elapsed=0:00:13.66    \nframe=  204 fps= 14 q=48.0 size=    1536KiB time=00:00:03.36 bitrate=3737.6kbits/s speed=0.237x elapsed=0:00:14.21    \nframe=  216 fps= 15 q=48.0 size=    1792KiB time=00:00:03.55 bitrate=4135.3kbits/s speed=0.241x elapsed=0:00:14.74    \nframe=  229 fps= 15 q=47.0 size=    1792KiB time=00:00:03.76 bitrate=3897.5kbits/s speed=0.247x elapsed=0:00:15.27    \nframe=  258 fps= 16 q=46.0 size=    2048KiB time=00:00:04.26 bitrate=3932.2kbits/s speed=0.27x elapsed=0:00:15.82    \nframe=  290 fps= 18 q=-1.0 size=    2304KiB time=00:00:04.75 bitrate=3973.6kbits/s speed=0.29x elapsed=0:00:16.38    \n[mp4 @ 000001e2f8e37ac0] Starting second pass: moving the moov atom to the beginning of the file\n[out#0/mp4 @ 000001e2f8da9b40] video:2399KiB audio:0KiB subtitle:0KiB other streams:0KiB global headers:0KiB muxing overhead: 0.106127%\nframe=  300 fps= 18 q=-1.0 Lsize=    2401KiB time=00:00:04.96 bitrate=3961.0kbits/s speed=0.299x elapsed=0:00:16.60    \n[libx264 @ 000001e2f9900300] frame I:2     Avg QP:45.20  size: 20684\n[libx264 @ 000001e2f9900300] frame P:252   Avg QP:49.69  size:  8650\n[libx264 @ 000001e2f9900300] frame B:46    Avg QP:49.25  size:  5100\n[libx264 @ 000001e2f9900300] consecutive B-frames: 79.3%  0.7%  0.0% 20.0%\n[libx264 @ 000001e2f9900300] mb I  I16..4: 64.9% 34.9%  0.3%\n[libx264 @ 000001e2f9900300] mb P  I16..4: 17.2%  2.5%  0.0%  P16..4: 34.2%  0.9%  1.0%  0.0%  0.0%    skip:44.2%\n[libx264 @ 000001e2f9900300] mb B  I16..4:  0.8%  0.4%  0.0%  B16..8: 33.9%  1.0%  0.0%  direct: 1.8%  skip:62.1%  L0:49.2% L1:49.3% BI: 1.4%\n[libx264 @ 000001e2f9900300] 8x8 transform intra:13.9% inter:98.9%\n[libx264 @ 000001e2f9900300] direct mvs  spatial:87.0% temporal:13.0%\n[libx264 @ 000001e2f9900300] coded y,uvDC,uvAC intra: 1.5% 36.6% 1.0% inter: 2.0% 20.1% 0.0%\n[libx264 @ 000001e2f9900300] i16 v,h,dc,p: 31% 35%  8% 26%\n[libx264 @ 000001e2f9900300] i8 v,h,dc,ddl,ddr,vr,hd,vl,hu:  2%  4% 60%  4%  8%  4%  9%  3%  6%\n[libx264 @ 000001e2f9900300] i4 v,h,dc,ddl,ddr,vr,hd,vl,hu:  2%  3% 14%  9% 14%  9% 14%  9% 27%\n[libx264 @ 000001e2f9900300] i8c dc,h,v,p: 79% 16%  3%  1%\n[libx264 @ 000001e2f9900300] Weighted P-Frames: Y:3.2% UV:0.4%\n[libx264 @ 000001e2f9900300] ref P L0: 63.9%  1.3% 13.8%  6.5%  7.2%  7.0%  0.3%\n[libx264 @ 000001e2f9900300] ref B L0: 78.0% 12.6%  6.5%  2.9%\n[libx264 @ 000001e2f9900300] ref B L1: 94.0%  6.0%\n[libx264 @ 000001e2f9900300] kb/s:3929.18\n",
  "seconds": 17.054946660995483,
  "probe_out": {}
}